<?xml version="1.0" encoding="UTF-8"?>
<!-- Created with Inkscape (http://www.inkscape.org/) -->
<svg width="32" height="32" version="1.1" viewBox="0 0 8.4667 8.4667" xmlns="http://www.w3.org/2000/svg">
 <circle transform="rotate(5.3131)" cx="4.6072" cy="3.8232" r="4.0321" fill="#fff" stroke="#000" stroke-width=".25674"/>
 <a transform="matrix(1.0464 .097314 -.097314 1.0464 .40791 -.69173)" fill="#80e5ff">
  <g transform="translate(.047925 .11381)" fill="#80e5ff" stroke="#000">
   <path d="m5.9516 7.4087c0.28283-0.26165 0.55288-0.54161 0.87783-0.75248 0.77807-0.64113 1.0338-1.7209 0.95125-2.6895-0.088571-0.95448-0.46462-1.9111-1.1506-2.5938-0.26727-0.24614-0.5902-0.48046-0.96273-0.5097-0.42963 0.028639-0.47136 0.56345-0.19054 0.8067 0.28746 0.38888 0.59217 0.77503 0.74352 1.2422 0.20787 0.5384 0.32427 1.1059 0.43077 1.6714-0.12939 0.36318-0.57547 0.13888-0.82105 0.031754-0.4294-0.18831-0.54966-0.69901-0.6401-1.1155-0.097851-0.35561-0.14133-0.71992-0.172-1.0865-0.044183-0.21986-0.064155-0.59488-0.35888-0.59748-0.24491 0.2219-0.36403 0.56932-0.58173 0.82683-0.24109 0.52796 0.0031525 1.1019 0.21291 1.5952 0.18746 0.46238 0.3573 1.0089 0.099392 1.4801-0.22854 0.42597-0.41229 0.91676-0.83465 1.1929-0.33461 0.065971-0.89469 0.20401-0.70625 0.66705 0.15121 0.35855 0.59922 0.36663 0.93282 0.3848 0.75822 0.017816 1.4901-0.24217 2.17-0.55408" stroke-width=".26458px"/>
   <path d="m6.5775 5.9492c-0.54836-1.3239-1.0967-2.6477-1.6451-3.9716 0.011472-0.15375 0.022944-0.3075 0.034416-0.46125 0.1513 0.075228 0.32801 0.12497 0.46375 0.2158 0.57568 1.3087 1.1514 2.6174 1.727 3.926-0.19338 0.097015-0.38675 0.19403-0.58013 0.29105z" stroke-width=".19341"/>
  </g>
 </a>
 <a transform="matrix(-1.0509 0 0 -1.0509 8.5063 8.6786)" fill="#faa" stroke="#000">
  <path d="m5.6872 7.6876c0.30584-0.23434 0.60065-0.48808 0.94374-0.66796 0.8341-0.56633 1.1887-1.6178 1.1962-2.5899 1.923e-4 -0.95858-0.28565-1.9459-0.90547-2.6892-0.24333-0.26983-0.54317-0.53304-0.9114-0.59666-0.43044-0.011267-0.5215 0.51739-0.26442 0.78559 0.25021 0.41383 0.51786 0.82653 0.6253 1.3057 0.15712 0.55534 0.22047 1.1312 0.27415 1.7041-0.16247 0.34964-0.58586 0.084991-0.82046-0.04441-0.41012-0.22726-0.48257-0.74691-0.53405-1.17-0.064502-0.36314-0.074063-0.72991-0.070649-1.0978-0.023634-0.22301-0.0087952-0.59826-0.30201-0.62815-0.2644 0.19827-0.41519 0.53317-0.65579 0.76941-0.28894 0.50337-0.098891 1.0974 0.064281 1.6081 0.14384 0.47776 0.26234 1.0377-0.038092 1.483-0.267 0.40298-0.49541 0.87464-0.94153 1.1105-0.33929 0.034703-0.90974 0.12029-0.76499 0.59878 0.11735 0.37101 0.5627 0.42055 0.89319 0.46952 0.75331 0.087949 1.5062-0.10314 2.212-0.35076" stroke-width=".26458px"/>
  <path d="m6.4973 6.2347c-0.42342-1.369-0.84684-2.7379-1.2703-4.1069 0.02566-0.15203 0.051319-0.30406 0.076979-0.45608 0.14368 0.088915 0.31503 0.15481 0.44178 0.25781 0.45203 1.3564 0.90405 2.7127 1.3561 4.0691-0.20153 0.078692-0.40306 0.15738-0.60458 0.23608z" stroke-width=".19341"/>
 </a>
 <rect transform="matrix(1 0 .33588 .9419 0 0)" x="1.735" y="3.891" width="2.0764" height=".64258" fill="#fff" stroke="#000" stroke-width=".2865"/>
</svg>
