<?xml version="1.0" encoding="UTF-8" standalone="no"?>
<!-- Created with Inkscape (http://www.inkscape.org/) -->

<svg
   width="32"
   height="32"
   viewBox="0 0 8.4666667 8.4666667"
   version="1.1"
   id="svg5"
   inkscape:version="1.1 (ce6663b3b7, 2021-05-25)"
   sodipodi:docname="logo2.svg"
   inkscape:export-filename="/home/lizelive/src/ftcg-website/public/logo512.png"
   inkscape:export-xdpi="1536"
   inkscape:export-ydpi="1536"
   xmlns:inkscape="http://www.inkscape.org/namespaces/inkscape"
   xmlns:sodipodi="http://sodipodi.sourceforge.net/DTD/sodipodi-0.dtd"
   xmlns="http://www.w3.org/2000/svg"
   xmlns:svg="http://www.w3.org/2000/svg">
  <sodipodi:namedview
     id="namedview7"
     pagecolor="#ffffff"
     bordercolor="#666666"
     borderopacity="1.0"
     inkscape:pageshadow="2"
     inkscape:pageopacity="0.0"
     inkscape:pagecheckerboard="0"
     inkscape:document-units="mm"
     showgrid="false"
     units="px"
     inkscape:zoom="15.265625"
     inkscape:cx="31.31218"
     inkscape:cy="3.9959058"
     inkscape:window-width="1848"
     inkscape:window-height="1043"
     inkscape:window-x="72"
     inkscape:window-y="1080"
     inkscape:window-maximized="1"
     inkscape:current-layer="layer1" />
  <defs
     id="defs2" />
  <g
     inkscape:label="Layer 1"
     inkscape:groupmode="layer"
     id="layer1">
    <circle
       style="fill:none;stroke:#000000;stroke-width:0.256736"
       id="path625"
       cx="4.6071515"
       cy="3.8232396"
       r="4.0321488"
       transform="rotate(5.3130747)" />
    <g
       id="g15343">
      <path
         style="fill:#ffd5d5;stroke:#000000;stroke-width:0.278058px;stroke-linecap:butt;stroke-linejoin:miter;stroke-opacity:1"
         d="M 5.9538907,7.7638167 C 6.2752623,7.5175733 6.5852229,7.2508168 6.9456953,7.0618376 m 0,0 C 7.8607993,6.435171 8.2300367,5.2659238 8.2008681,4.1982067 8.1665835,3.1220117 7.8018218,2.0001274 6.99372,1.2563104 6.7281599,1.0100211 6.1518618,0.65641185 5.9168163,1.116924 5.7626771,1.5059673 6.1130279,1.8056923 6.2864153,2.1129143 6.5464554,2.5405303 6.7505058,3.0049785 6.8310907,3.5009701 6.9129401,3.9175337 7.078045,4.3483168 6.9761187,4.7743242 6.814706,5.0936699 6.3804403,4.8640846 6.1704906,4.7142978 5.9499772,4.4351215 6.044001,4.0482367 6.0234819,3.7176883 6.0184399,3.2736001 6.0258882,2.8239577 5.9527319,2.3854182 5.8541644,1.9420947 5.1332725,1.763966 4.9144366,2.2031418 4.6568505,2.722829 4.5694551,3.3014274 4.4891949,3.8697665 4.3698706,4.1874216 4.4881318,4.5301029 4.3391415,4.8447754 3.9860139,5.7709517 3.2034192,6.4413416 2.7657504,7.3190588 2.5138568,7.7179325 2.9763973,8.0710336 3.3533785,8.0884594 4.2297494,8.2696913 5.126848,8.0554241 5.9538907,7.7638167"
         sodipodi:nodetypes="cccsssscccsscccc"
         id="path67" />
      <path
         id="rect117"
         style="fill:#ffffff;stroke:#000000;stroke-width:0.203259"
         d="M 6.9788598,6.0893028 C 6.4621826,4.6747855 5.9455055,3.2602681 5.4288283,1.8457508 5.4477363,1.6848272 5.4666442,1.5239035 5.4855522,1.3629799 5.6943634,1.4813221 5.9971902,1.5291932 6.0389069,1.8052282 6.5595953,3.1400205 7.0802836,4.4748127 7.600972,5.809605 7.3936013,5.9028376 7.1862305,5.9960702 6.9788598,6.0893028 Z"
         sodipodi:nodetypes="ccccc" />
    </g>
    <g
       id="g15349"
       transform="rotate(180,4.2296642,4.1835066)">
      <path
         style="fill:#d5fff6;stroke:#000000;stroke-width:0.278058px;stroke-linecap:butt;stroke-linejoin:miter;stroke-opacity:1"
         d="M 5.9538907,7.7638167 C 6.2752623,7.5175733 6.5852229,7.2508168 6.9456953,7.0618376 m 0,0 C 7.8607993,6.435171 8.2300367,5.2659238 8.2008681,4.1982067 8.1665835,3.1220117 7.8018218,2.0001274 6.99372,1.2563104 6.7281599,1.0100211 6.1518618,0.65641185 5.9168163,1.116924 5.7626771,1.5059673 6.1130279,1.8056923 6.2864153,2.1129143 6.5464554,2.5405303 6.7505058,3.0049785 6.8310907,3.5009701 6.9129401,3.9175337 7.078045,4.3483168 6.9761187,4.7743242 6.814706,5.0936699 6.3804403,4.8640846 6.1704906,4.7142978 5.9499772,4.4351215 6.044001,4.0482367 6.0234819,3.7176883 6.0184399,3.2736001 6.0258882,2.8239577 5.9527319,2.3854182 5.8541644,1.9420947 5.1332725,1.763966 4.9144366,2.2031418 4.6568505,2.722829 4.5694551,3.3014274 4.4891949,3.8697665 4.3500322,4.1926765 4.5454512,4.528713 4.4009746,4.8572132 4.0744308,5.8075202 3.2404717,6.4518305 2.7725801,7.3204326 2.507665,7.7151241 2.9784678,8.0721475 3.3533785,8.0884594 4.2297494,8.2696913 5.126848,8.0554241 5.9538907,7.7638167"
         sodipodi:nodetypes="cccsssscccsscccc"
         id="path15345" />
      <path
         id="path15347"
         style="fill:#ffffff;stroke:#000000;stroke-width:0.203259"
         d="M 6.9788598,6.0893028 C 6.4621826,4.6747855 5.9455055,3.2602681 5.4288283,1.8457508 5.4477363,1.6848272 5.4666442,1.5239035 5.4855522,1.3629799 5.6943632,1.4813221 5.9971901,1.529193 6.0389068,1.8052279 6.5595952,3.1400203 7.0802836,4.4748126 7.600972,5.809605 7.3936013,5.9028376 7.1862305,5.9960702 6.9788598,6.0893028 Z"
         sodipodi:nodetypes="ccccc" />
    </g>
  </g>
</svg>
