<?xml version="1.0" encoding="UTF-8"?>
<!-- Created with Inkscape (http://www.inkscape.org/) -->
<svg id="logo" width="32" height="32" version="1.1" viewBox="0 0 32 32" xmlns="http://www.w3.org/2000/svg" xmlns:xlink="http://www.w3.org/1999/xlink">
   <text x="9.8351269" y="22.372595" font-family="Z003" font-size="28.337px" stroke-width="1.012" style="line-height:1.25" xml:space="preserve">
      <tspan x="9.8351269" y="22.372595" font-family="Z003" font-size="28.337px" stroke-width="1.012">f</tspan>
   </text>
   <circle id="backring" transform="rotate(5.3131)" cx="17.415" cy="14.491" r="15.423" fill="#fff" stroke="#000" stroke-width="1.012" style="paint-order:stroke fill markers" />
   <g fill="#F7A8B8">
      <g id="handgroup" transform="matrix(4.0026 .37223 -.37223 4.0026 1.4652 -2.6153) translate(.047925 .11381)" stroke-width=".25176">
         <path id="hand" d="m7.7664 3.8325c-0.12731-1.0166-0.57175-2.0474-1.4029-2.6809-0.27794-0.21636-0.85974-0.49278-1.0427-0.026869-0.12017 0.37947 0.2579 0.62169 0.42542 0.91159 0.2506 0.32564 0.41944 0.70062 0.56114 1.0833 0.14867 0.38058 0.42279 0.7603 0.36332 1.1866-0.11119 0.37945-0.564 0.24664-0.84062 0.17019-0.3537-0.017097-0.35151-0.45417-0.4241-0.71301-0.1039-0.50103-0.36457-0.95852-0.41387-1.4726-0.025539-0.30643-0.39733-0.58157-0.6739-0.37852-0.30235 0.30434-0.23961 0.78043-0.23149 1.173 0.021164 0.4675 0.16935 0.87982 0.26183 1.3339 0.12844 0.63069 0.11647 0.95281 0.086596 1.4742-0.03331 0.58144-0.41611 0.85643-0.83589 1.0975-0.34374 0.19738-0.68307 0.11808-0.76841 0.4331-0.088538 0.32682 0.40837 0.45387 0.68342 0.50845 0.84076 0.12557 1.6746-0.0054579 2.868-0.72202 1.2507-1.0506 1.5058-2.3689 1.3841-3.378z" stroke="#000" stroke-width=".25176" style="paint-order:stroke fill markers" />
         <path id="pencil" d="m6.6874 6.0715c-0.58886-1.3651-1.1777-2.7302-1.7666-4.0954 0.0095804-0.15968 0.019161-0.31935 0.028741-0.47903 0.1581 0.075759 0.34217 0.12469 0.48436 0.21687 0.61697 1.3489 1.2339 2.6979 1.8509 4.0468-0.19915 0.10356-0.39829 0.20713-0.59744 0.31069z" fill="#fff" stroke="#000" stroke-width=".26121" style="paint-order:stroke fill markers" />
      </g>
   </g>
   <use id="mirrorhand" transform="rotate(180 16 16)" width="100%" height="100%" fill="#55CDFC" xlink:href="#handgroup" />
   <rect id="slash" transform="matrix(1 0 .33588 .9419 0 0)" x="6.7677" y="14.916" width="8.1407" height="1.4863" fill="#fff" stroke="#000" stroke-width="1.0428" style="paint-order:stroke fill markers" />
   <text x="3.4049721" y="3.9938989" font-family="sans-serif" font-size="11.289px" stroke-width=".26458" style="line-height:1.25" xml:space="preserve">
      <tspan x="3.4049721" y="3.9938989" font-size="11.289px" stroke-width=".26458" />
   </text>
</svg>