<?xml version="1.0" encoding="UTF-8"?>
<svg id="logo" width="32" height="32" fill="#fff" stroke="#000" stroke-width="1px" style="paint-order:stroke fill markers" version="1.1" xmlns="http://www.w3.org/2000/svg" xmlns:xlink="http://www.w3.org/1999/xlink">
 <!-- <circle id="backring" cx="16" cy="16" r="15"/> -->
 <a fill="#55CDFC">
  <g id="handgroup" transform="matrix(3.3175 .30851 -.30851 3.3175 4.9609 1.641)">
   <path id="hand" d="m7.7664 3.8325c-0.12731-1.0166-0.57175-2.0474-1.4029-2.6809-0.27794-0.21636-0.85974-0.49278-1.0427-0.026869-0.12017 0.37947 0.2579 0.62169 0.42542 0.91159 0.2506 0.32564 0.41944 0.70062 0.56114 1.0833 0.14867 0.38058 0.42279 0.7603 0.36332 1.1866-0.11119 0.37945-0.564 0.24664-0.84062 0.17019-0.3537-0.017097-0.35151-0.45417-0.4241-0.71301-0.1039-0.50103-0.36457-0.95852-0.41387-1.4726-0.025539-0.30643-0.39733-0.58157-0.6739-0.37852-0.30235 0.30434-0.23961 0.78043-0.23149 1.173 0.021164 0.4675 0.16935 0.87982 0.26183 1.3339 0.12844 0.63069 0.11647 0.95281 0.086596 1.4742-0.03331 0.58144-0.41611 0.85643-0.83589 1.0975-0.34374 0.19738-0.68307 0.11808-0.76841 0.4331-0.088538 0.32682 0.40837 0.45387 0.68342 0.50845 0.84076 0.12557 1.6746-0.00546 2.868-0.72202 1.2507-1.0506 1.5058-2.3689 1.3841-3.378z"/>
   <path id="pencil" d="m6.6053 5.9759c-0.58886-1.3651-1.1777-2.7302-1.7666-4.0954 0.00958-0.15968 0.019161-0.31935 0.028741-0.47903 0.1581 0.075759 0.34217 0.12469 0.48436 0.21687 0.61697 1.3489 1.2339 2.6979 1.8509 4.0468-0.19915 0.10356-0.39829 0.20713-0.59744 0.31069z" fill="#fff" stroke-linejoin="round"/>
  </g>
 </a>
 <use id="mirrorhand" transform="rotate(180 15.843 15.911)"  fill="#f7a8b8" xlink:href="#handgroup"/>
 <rect id="slash" transform="skewX(25)" x="4.5" y="15.039" width="8" height="2"/>
</svg>
