<?xml version="1.0" encoding="UTF-8" standalone="no"?>
<!-- Created with Inkscape (http://www.inkscape.org/) -->

<svg
   width="32"
   height="32"
   viewBox="0 0 8.4666667 8.4666667"
   version="1.1"
   id="svg5"
   inkscape:version="1.1 (ce6663b3b7, 2021-05-25)"
   sodipodi:docname="logo.svg"
   inkscape:export-filename="/home/lizelive/src/ftcg-website/public/logo512.png"
   inkscape:export-xdpi="1536"
   inkscape:export-ydpi="1536"
   xmlns:inkscape="http://www.inkscape.org/namespaces/inkscape"
   xmlns:sodipodi="http://sodipodi.sourceforge.net/DTD/sodipodi-0.dtd"
   xmlns="http://www.w3.org/2000/svg"
   xmlns:svg="http://www.w3.org/2000/svg">
  <sodipodi:namedview
     id="namedview7"
     pagecolor="#ffffff"
     bordercolor="#666666"
     borderopacity="1.0"
     inkscape:pageshadow="2"
     inkscape:pageopacity="0.0"
     inkscape:pagecheckerboard="0"
     inkscape:document-units="mm"
     showgrid="false"
     units="px"
     inkscape:zoom="5.3972135"
     inkscape:cx="-24.271784"
     inkscape:cy="45.208514"
     inkscape:window-width="1848"
     inkscape:window-height="1043"
     inkscape:window-x="72"
     inkscape:window-y="1080"
     inkscape:window-maximized="1"
     inkscape:current-layer="layer1" />
  <defs
     id="defs2" />
  <g
     inkscape:label="Layer 1"
     inkscape:groupmode="layer"
     id="layer1">
    <circle
       style="fill:#ffffff;stroke:#000000;stroke-width:0.256736"
       id="path625"
       cx="4.6071515"
       cy="3.8232396"
       r="4.0321488"
       transform="rotate(5.3130747)" />
    <a
       id="a7236"
       transform="matrix(1.0464143,0.09731377,-0.09731377,1.0464143,0.40791291,-0.69173338)"
       style="fill:#80e5ff">
      <g
         id="g5965"
         transform="translate(0.04792531,0.1138149)"
         style="fill:#80e5ff">
        <path
           style="fill:#80e5ff;stroke:#000000;stroke-width:0.264583px;stroke-linecap:butt;stroke-linejoin:miter;stroke-opacity:1"
           d="M 5.9516354,7.4087411 C 6.2344642,7.1470873 6.5045139,6.8671347 6.8294694,6.6562625 m 0,0 C 7.6075399,6.0151293 7.8632824,4.9353548 7.7807203,3.9667299 7.6921494,3.0122514 7.3161053,2.0555925 6.6301304,1.3729756 6.3628601,1.1268391 6.0399319,0.89251778 5.6673979,0.86327181 5.2377681,0.89191064 5.1960425,1.4267254 5.4768552,1.6699719 5.7643142,2.0588526 6.0690265,2.4450027 6.2203733,2.9121771 6.4282433,3.450577 6.5446431,4.0181003 6.6511416,4.5835985 6.521749,4.9467755 6.0756671,4.7224735 5.8300936,4.6153523 5.4006957,4.4270418 5.2804335,3.9163412 5.1899983,3.4998568 5.0921477,3.1442503 5.0486647,2.7799368 5.0180019,2.4133486 4.973819,2.1934871 4.9538468,1.8184718 4.6591219,1.8158658 4.4142126,2.0377648 4.2950893,2.3851866 4.0773962,2.6426983 3.8363105,3.1706601 4.0805487,3.7445559 4.2903056,4.2379162 4.477769,4.7003008 4.647602,5.2468471 4.3896979,5.7180543 4.1611604,6.144028 3.9774104,6.6348118 3.5550434,6.9109781 3.2204292,6.9769492 2.66035,7.1149891 2.8487885,7.5780235 2.999994,7.9365762 3.4480095,7.9446576 3.781613,7.9628232 4.5398337,7.9806394 5.2717523,7.7206579 5.9516354,7.4087411"
           sodipodi:nodetypes="cccssssssssssssssscc"
           id="path67" />
        <path
           id="rect117"
           style="fill:#80e5ff;stroke:#000000;stroke-width:0.193409"
           d="M 6.5774655,5.9492055 C 6.0291041,4.6253334 5.4807428,3.3014613 4.9323814,1.9775892 4.9438533,1.8238381 4.9553251,1.6700871 4.966797,1.516336 5.1180965,1.591564 5.294809,1.6413052 5.4305515,1.7321342 6.0062315,3.0408096 6.5819116,4.3494849 7.1575916,5.6581602 6.9642162,5.7551752 6.7708409,5.8521904 6.5774655,5.9492055 Z"
           sodipodi:nodetypes="ccccc" />
      </g>
    </a>
    <a
       id="a7247"
       transform="matrix(-1.0509295,0,0,-1.0509295,8.506253,8.6786303)"
       style="fill:#ffaaaa">
      <path
         style="fill:#ffaaaa;stroke:#000000;stroke-width:0.264583px;stroke-linecap:butt;stroke-linejoin:miter;stroke-opacity:1"
         d="M 5.6871521,7.6876102 C 5.9929944,7.4532699 6.2878068,7.1995261 6.6308925,7.0196501 m 0,0 C 7.4649876,6.4533191 7.8196161,5.4018649 7.8271012,4.4297566 7.8272935,3.4711774 7.5414495,2.4838079 6.9216307,1.740604 6.6783004,1.4707763 6.3784573,1.2075593 6.0102319,1.1439432 5.5797961,1.1326762 5.4887271,1.6613295 5.7458092,1.9295335 5.9960237,2.3433615 6.2636702,2.7560682 6.3711074,3.2352498 6.5282296,3.7905849 6.5915779,4.3664482 6.645255,4.9393783 6.4827889,5.2890135 6.0593934,5.024369 5.8247942,4.8949685 5.4146783,4.6677057 5.3422226,4.1480633 5.2907414,3.7249942 5.2262396,3.3618547 5.2166781,2.9950801 5.2200923,2.6272276 5.1964579,2.4042194 5.2112971,2.028966 4.9180798,1.9990803 4.6536753,2.1973479 4.5028934,2.5322464 4.2622905,2.7684939 3.9733525,3.2718633 4.1633999,3.8659093 4.3265715,4.376573 4.4704137,4.8543297 4.588908,5.414254 4.2884792,5.8595553 4.0214794,6.2625368 3.7930734,6.7341972 3.3469486,6.9700667 3.0076633,7.0047698 2.4372082,7.0903545 2.5819611,7.5688485 2.6993158,7.939862 3.1446581,7.989394 3.4751462,8.0383725 4.2284596,8.1263217 4.9813073,7.9352312 5.6871521,7.6876102"
         sodipodi:nodetypes="cccssssssssssssssscc"
         id="path7241" />
      <path
         id="path7243"
         style="fill:#ffaaaa;stroke:#000000;stroke-width:0.193409"
         d="M 6.4973041,6.2346883 C 6.0738863,4.865727 5.6504686,3.4967658 5.2270509,2.1278045 5.2527105,1.9757762 5.27837,1.8237481 5.3040296,1.6717198 5.4477131,1.7606346 5.6190605,1.8265253 5.7458092,1.9295335 6.1978354,3.285893 6.6498617,4.6422524 7.1018879,5.9986118 6.9003599,6.077304 6.698832,6.1559961 6.4973041,6.2346883 Z"
         sodipodi:nodetypes="ccccc" />
    </a>
    <rect
       style="fill:#ffffff;stroke:#000000;stroke-width:0.286505"
       id="rect8291"
       width="2.0764022"
       height="0.64258403"
       x="1.7350338"
       y="3.891046"
       transform="matrix(1,0,0.33588297,0.94190373,0,0)" />
  </g>
</svg>
