<?xml version="1.0" encoding="UTF-8" standalone="no"?>
<!-- Created with Inkscape (http://www.inkscape.org/) -->

<svg
   width="32"
   height="32"
   viewBox="0 0 32 32"
   version="1.1"
   id="logo"
   inkscape:version="1.1 (ce6663b3b7, 2021-05-25)"
   sodipodi:docname="logo.svg"
   inkscape:export-filename="/home/lizelive/src/ftcg-website/public/logo512.png"
   inkscape:export-xdpi="1536"
   inkscape:export-ydpi="1536"
   xmlns:inkscape="http://www.inkscape.org/namespaces/inkscape"
   xmlns:sodipodi="http://sodipodi.sourceforge.net/DTD/sodipodi-0.dtd"
   xmlns:xlink="http://www.w3.org/1999/xlink"
   xmlns="http://www.w3.org/2000/svg"
   xmlns:svg="http://www.w3.org/2000/svg">
  <sodipodi:namedview
     id="namedview7"
     pagecolor="#ffffff"
     bordercolor="#666666"
     borderopacity="1.0"
     inkscape:pageshadow="2"
     inkscape:pageopacity="0.0"
     inkscape:pagecheckerboard="0"
     inkscape:document-units="px"
     showgrid="false"
     units="px"
     inkscape:zoom="32"
     inkscape:cx="18.734375"
     inkscape:cy="23.796875"
     inkscape:window-width="3840"
     inkscape:window-height="2096"
     inkscape:window-x="1920"
     inkscape:window-y="27"
     inkscape:window-maximized="1"
     inkscape:current-layer="layer1"
     viewbox-width="8.56667" />
  <defs
     id="defs2">
    <marker
       style="overflow:visible"
       id="Tail"
       refX="0"
       refY="0"
       orient="auto"
       inkscape:stockid="Tail"
       inkscape:isstock="true">
      <g
         transform="scale(-1.2)"
         id="g11016">
        <path
           style="fill:none;fill-rule:evenodd;stroke:context-stroke;stroke-width:0.8;stroke-linecap:round"
           d="M -3.8048674,-3.9585227 0.54352094,0"
           id="path11004" />
        <path
           style="fill:none;fill-rule:evenodd;stroke:context-stroke;stroke-width:0.8;stroke-linecap:round"
           d="M -1.2866832,-3.9585227 3.0617053,0"
           id="path11006" />
        <path
           style="fill:none;fill-rule:evenodd;stroke:context-stroke;stroke-width:0.8;stroke-linecap:round"
           d="M 1.3053582,-3.9585227 5.6537466,0"
           id="path11008" />
        <path
           style="fill:none;fill-rule:evenodd;stroke:context-stroke;stroke-width:0.8;stroke-linecap:round"
           d="M -3.8048674,4.1775838 0.54352094,0.21974226"
           id="path11010" />
        <path
           style="fill:none;fill-rule:evenodd;stroke:context-stroke;stroke-width:0.8;stroke-linecap:round"
           d="M -1.2866832,4.1775838 3.0617053,0.21974226"
           id="path11012" />
        <path
           style="fill:none;fill-rule:evenodd;stroke:context-stroke;stroke-width:0.8;stroke-linecap:round"
           d="M 1.3053582,4.1775838 5.6537466,0.21974226"
           id="path11014" />
      </g>
    </marker>
    <marker
       style="overflow:visible"
       id="Arrow1Lstart"
       refX="0"
       refY="0"
       orient="auto"
       inkscape:stockid="Arrow1Lstart"
       inkscape:isstock="true">
      <path
         transform="matrix(0.8,0,0,0.8,10,0)"
         style="fill:context-stroke;fill-rule:evenodd;stroke:context-stroke;stroke-width:1pt"
         d="M 0,0 5,-5 -12.5,0 5,5 Z"
         id="path10968" />
    </marker>
  </defs>
  <g
     inkscape:label="Layer 1"
     inkscape:groupmode="layer"
     id="layer1">
    <text
       xml:space="preserve"
       style="font-style:normal;font-variant:normal;font-weight:normal;font-stretch:normal;font-size:28.3373px;line-height:1.25;font-family:Z003;-inkscape-font-specification:Z003;stroke-width:1.01205"
       x="9.8351269"
       y="22.372595"
       id="text36370"><tspan
         sodipodi:role="line"
         id="tspan36368"
         style="font-style:normal;font-variant:normal;font-weight:normal;font-stretch:normal;font-size:28.3373px;font-family:Z003;-inkscape-font-specification:Z003;stroke-width:1.01205"
         x="9.8351269"
         y="22.372595">f</tspan></text>
    <circle
       style="fill:#ffffff;stroke:#000000;stroke-width:1.01205;stroke-linecap:butt;stroke-linejoin:miter;stroke-miterlimit:4;stroke-dasharray:none;paint-order:stroke fill markers"
       id="backring"
       cx="17.415451"
       cy="14.490747"
       transform="rotate(5.3130747)"
       r="15.423221" />
    <a
       id="handgroup"
       transform="matrix(4.0025999,0.37223123,-0.37223123,4.0025999,1.4652065,-2.6152906)"
       style="stroke-width:0.251761;stroke-miterlimit:4;stroke-dasharray:none">
      <g
         id="g5965"
         transform="translate(0.04792531,0.1138149)"
         style="fill:none;stroke-width:0.251761;stroke-miterlimit:4;stroke-dasharray:none">
        <path
           style="stroke:#000000;stroke-width:0.251761;stroke-linecap:butt;stroke-linejoin:miter;stroke-miterlimit:4;stroke-dasharray:none;stroke-opacity:1;paint-order:stroke fill markers;fill:#aaeeff"
           d="M 7.7663677,3.8325204 C 7.6390608,2.8159 7.1946176,1.7851095 6.3634432,1.1515819 6.0854996,0.93522017 5.5037081,0.6588034 5.3207769,1.1247127 5.2006037,1.5041778 5.5786813,1.7464 5.7461958,2.0363036 5.9967938,2.3619389 6.1656403,2.7369188 6.3073321,3.1196256 6.4560054,3.5002006 6.7301253,3.8799245 6.6706505,4.3062596 6.5594559,4.6857093 6.1066512,4.552897 5.83003,4.4764498 5.4763267,4.459353 5.4785249,4.0222763 5.4059269,3.7634357 5.3020304,3.2624012 5.0413541,2.8049201 4.9920545,2.2908253 4.9665159,1.984399 4.5947234,1.7092558 4.3181593,1.9123053 4.0158044,2.2166501 4.078547,2.6927402 4.0866675,3.0853413 4.1078316,3.5528435 4.2560165,3.9651594 4.3484947,4.4192492 4.4769391,5.0499417 4.4649629,5.3720636 4.4350905,5.8934935 4.4017801,6.4749358 4.0189765,6.7499281 3.5992038,6.9909645 3.2554603,7.1883443 2.9161323,7.1090401 2.8307916,7.4240627 2.742254,7.7508862 3.2391624,7.8779327 3.5142117,7.9325107 4.3549679,8.0580826 5.1888324,7.9270528 6.382233,7.2104948 7.6329498,6.1598898 7.8880805,4.8415594 7.7663677,3.8325204 Z"
           sodipodi:nodetypes="sssssssssssssssccs"
           id="hand" />
        <path
           id="pencil"
           style="fill:#ffffff;stroke:#000000;stroke-width:0.261208;stroke-linecap:butt;stroke-linejoin:miter;stroke-miterlimit:4;stroke-dasharray:none;paint-order:stroke fill markers"
           d="M 6.6873514,6.0715458 C 6.0984919,4.7064213 5.5096324,3.341297 4.9207729,1.9761724 4.9303533,1.8164961 4.9399335,1.6568197 4.9495138,1.4971432 5.1076093,1.5729019 5.2916839,1.6218368 5.4338758,1.7140151 6.0508467,3.0629619 6.6678175,4.4119086 7.2847883,5.7608553 7.0856427,5.8644188 6.886497,5.9679823 6.6873514,6.0715458 Z"
           sodipodi:nodetypes="ccccc" />
      </g>
    </a>
    <use
       x="0"
       y="0"
       xlink:href="#handgroup"
       id="mirrorhand"
       transform="rotate(180,15.998815,16.041121)"
       width="100%"
       height="100%"
       style="fill:#ff0000" />
    <rect
       style="fill:#ffffff;stroke:#000000;stroke-width:1.04279;stroke-linecap:butt;stroke-linejoin:miter;stroke-miterlimit:4;stroke-dasharray:none;paint-order:stroke fill markers"
       id="slash"
       height="1.4862829"
       x="6.7676702"
       y="14.916016"
       transform="matrix(1,0,0.33588297,0.94190373,0,0)"
       width="8.140727" />
    <text
       xml:space="preserve"
       style="font-size:11.2889px;line-height:1.25;font-family:sans-serif;stroke-width:0.264583"
       x="3.4049721"
       y="3.9938989"
       id="text16148"><tspan
         sodipodi:role="line"
         id="tspan16146"
         style="font-size:11.2889px;stroke-width:0.264583"
         x="3.4049721"
         y="3.9938989" /></text>
  </g>
</svg>
